Coordinates
version=1
nRows=19
nColumns=36
inDegrees=yes

Units are S.I. units (second, meters, Newtons, ...)
If the header above contains a line with 'inDegrees', this indicates whether rotational values are in degrees (yes) or radians (no).

endheader
time	pelvis_tilt	pelvis_list	pelvis_rotation	pelvis_tx	pelvis_ty	pelvis_tz	hip_flexion_r	hip_adduction_r	hip_rotation_r	knee_angle_r	knee_angle_r_beta	ankle_angle_r	subtalar_angle_r	mtp_angle_r	hip_flexion_l	hip_adduction_l	hip_rotation_l	knee_angle_l	knee_angle_l_beta	ankle_angle_l	subtalar_angle_l	mtp_angle_l	lumbar_extension	lumbar_bending	lumbar_rotation	arm_flex_r	arm_add_r	arm_rot_r	elbow_flex_r	pro_sup_r	arm_flex_l	arm_add_l	arm_rot_l	elbow_flex_l	pro_sup_l
      2.86666670	    -13.23260716	      1.04990789	     -0.03601612	      0.48228088	      1.42398522	     -0.06117943	     36.30709986	     -8.25824407	     -4.79444778	     55.15111415	      0.96256853	     10.60323234	     -7.23799331	     -7.49999987	     31.03615999	     -5.76770105	     -4.55133913	     41.16729911	      0.71850491	     12.29410133	     -4.37337020	     -7.49999987	    -17.38964204	      0.75358457	     -0.07331253	     21.14986030	    -38.14560081	     -2.40702180	     71.73307658	     85.99401775	     21.79753244	    -38.39655937	     -8.47464654	     99.87370237	     80.17343299
      2.88333330	    -13.73036108	      1.15667759	      0.40038249	      0.49064112	      1.39337588	     -0.05801919	     38.41043983	     -9.17670069	     -5.42359692	     51.27648713	      0.89494353	      8.07844736	     -6.72916152	     -7.49999987	     33.35910559	     -6.08757807	     -4.96368776	     40.20627742	      0.70173192	      9.58392214	     -5.68892027	     -7.49999987	    -19.05328942	      0.56797153	      0.55282742	     23.26212975	    -37.84441291	     -1.94154836	     69.93976458	     85.72892929	     24.62310890	    -37.94054892	     -8.31988041	     99.59677951	     80.30795035
      2.90000000	    -14.19852861	      1.43665023	      0.47406204	      0.50869989	      1.37966659	     -0.05727066	     39.13867156	    -10.07529082	     -6.61325386	     45.21896422	      0.78921981	      4.27346924	     -5.27866833	     -7.49999987	     34.86955829	     -6.20342501	     -5.92118897	     37.35572467	      0.65198039	      5.47485583	     -6.82943595	     -7.49999987	    -20.66853773	      0.19498672	      1.12210250	     23.55130033	    -37.49363625	     -1.50333188	     68.78694516	     85.57991411	     24.62764598	    -37.69074086	     -7.65665226	     98.31023071	     80.77029472
      2.91666670	    -14.21197894	      1.65975306	      0.27569558	      0.53355262	      1.35658553	     -0.06009531	     38.66465495	    -10.81423605	     -7.94989202	     38.91217186	      0.67914552	      0.38153446	     -2.84316006	     -7.49999987	     35.55624219	     -6.05284034	     -6.47895417	     34.56748330	      0.60331640	      2.50688392	     -6.94716048	     -7.49999987	    -22.17165317	     -0.08226958	      1.53265739	     23.57213065	    -36.90426047	     -1.10724347	     68.67188369	     85.47986565	     24.48764121	    -37.03783457	     -7.30713778	     96.66317788	     81.46036819
      2.93333330	    -14.03471518	      2.25771122	      0.48834945	      0.55018837	      1.33121224	     -0.06490842	     38.64288942	    -12.02145746	     -8.63610903	     33.66977829	      0.58764849	     -3.82714890	     -0.13287761	     -7.49999987	     36.55875482	     -5.06870601	     -6.59601747	     32.11525626	      0.56051696	     -0.29109791	     -6.35086256	     -7.49999987	    -23.51138819	     -0.41115321	      2.36876593	     21.57835969	    -37.17262283	     -2.41898819	     69.70474487	     85.37747489	     25.99196347	    -35.48052365	     -6.03640776	     94.91512000	     87.39456258
      2.95000000	    -13.32566673	      3.00670331	      0.98805988	      0.57266374	      1.31078712	     -0.06081158	     37.21036085	    -13.24031666	     -9.64737518	     28.15741861	      0.49143966	     -7.55274420	      2.71097713	     -7.49999987	     36.15852165	     -3.87812345	     -6.47935202	     28.46161572	      0.49674890	     -4.23600473	     -6.00740637	     -7.49999987	    -25.01997480	     -0.96876688	      2.15528773	     21.73231647	    -35.78845276	     -2.40040800	     68.67453611	     85.64219420	     25.57817832	    -34.66940195	     -6.38231235	     93.25163461	     88.00744690
      2.96666670	    -12.57676978	      3.61453249	      1.63227957	      0.59339954	      1.27262560	     -0.05626965	     36.61332764	    -14.06592254	    -10.03378047	     24.16150893	      0.42169788	    -10.40090326	      4.67876404	     -7.49999987	     35.97761187	     -2.89671185	     -5.42658985	     25.56704118	      0.44622905	     -7.80985641	     -5.58532139	     -7.49999987	    -25.83403867	     -1.73474758	      1.70222127	     20.97357840	    -34.25379385	     -2.59053358	     69.66822393	     85.88752039	     24.34157981	    -34.63929824	     -6.75813113	     93.56929995	     88.47191408
      2.98333330	    -11.93708168	      3.77171720	      2.06098136	      0.60696745	      1.23763745	     -0.05590579	     36.75538712	    -14.42978549	     -9.85222691	     22.12312928	      0.38612145	    -11.83455584	      5.54403258	     -7.49999987	     36.75443985	     -2.41275637	     -3.72978721	     24.34164062	      0.42484177	    -10.04276896	     -5.45348624	     -7.49999987	    -26.89337881	     -1.99924802	      1.07548105	     19.82466496	    -33.30635009	     -3.48177808	     72.51297203	     85.95810409	     22.23002490	    -35.06619470	     -8.06056710	     95.17402777	     88.61597403
      3.00000000	    -11.73473105	      3.50698758	      2.24930839	      0.62013190	      1.19806473	     -0.04906615	     37.72398297	    -14.22386842	     -9.53493196	     21.21615301	      0.37029172	    -12.92350598	      5.36983563	     -7.49999987	     38.32612060	     -2.68813144	     -1.94424291	     23.72414192	      0.41406439	    -11.66485419	     -5.52122019	     -7.49999987	    -27.60534344	     -2.16667036	      0.01126894	     19.69076357	    -32.04257269	     -3.18737483	     75.77493085	     87.04760386	     17.81907298	    -36.07678948	    -11.89110171	     99.23761893	     88.91137341
      3.01666670	    -11.38983507	      3.13184790	      2.27918436	      0.62641329	      1.16155840	     -0.04640132	     38.15439428	    -13.82890306	     -9.24185334	     20.60390735	      0.35960602	    -13.81669031	      4.76687885	     -7.49999987	     39.56656907	     -3.23180439	     -0.90580370	     23.43071519	      0.40894313	    -13.38382197	     -5.53054570	     -7.49999987	    -28.56072293	     -2.34604768	     -0.08859584	     21.71999570	    -31.21014384	     -2.23761519	     77.73786499	     87.41187776	     16.97762948	    -36.80228266	    -13.47064738	    102.71330006	     88.62968443
      3.03333330	    -10.86445324	      2.67768659	      1.93806856	      0.64147877	      1.11489461	     -0.04554533	     38.65916251	    -13.24117709	     -9.07072532	     21.04997730	      0.36739141	    -14.54523998	      3.63531502	     -7.49999987	     40.82838936	     -4.10350525	     -0.29704937	     24.18026937	      0.42202531	    -14.74948600	     -5.79103622	     -7.49999987	    -28.97357491	     -2.42489946	      0.37079859	     23.05083837	    -31.21385713	     -1.18189485	     78.92260387	     87.06848840	     18.33979434	    -37.27071959	    -12.73334199	    106.20767019	     88.13971257
      3.05000000	     -9.92771116	      2.25265172	      1.78860598	      0.66976176	      1.07192887	     -0.03909303	     37.49130390	    -12.32583737	     -8.37079871	     20.79378444	      0.36292000	    -14.94924240	      2.96320546	     -7.49999987	     40.49892016	     -4.81170259	      0.51515814	     24.35567836	      0.42508678	    -16.07095052	     -5.97330084	     -7.49999987	    -29.40698666	     -2.80448985	      0.88650234	     23.24687019	    -31.19272975	     -0.03347305	     81.70583008	     87.01919443	     17.47781834	    -37.48819156	    -12.34897462	    109.80198765	     87.88081846
      3.06666670	     -9.00837894	      1.81092356	      1.14517959	      0.71204924	      1.03022963	     -0.04425586	     35.70410751	    -11.44949226	     -8.28343135	     20.59616012	      0.35947081	    -12.83185052	      3.10410788	     -7.49999987	     39.32979606	     -5.56684927	      0.21228900	     24.45056362	      0.42674284	    -16.40160103	     -5.16235202	     -7.49999987	    -29.44023372	     -2.77441748	      0.84143503	     20.12069663	    -30.69166397	     -0.14267952	     85.98872127	     87.39437019	     13.99100480	    -35.25992691	    -14.32914883	    114.19334634	     87.90887970
      3.08333330	     -9.32562111	      0.79550105	      0.79698858	      0.71750410	      0.98074005	     -0.04244687	     38.45726006	    -10.19690135	     -5.84288880	     27.20470555	      0.47481168	     -7.00406442	      0.07379909	     -7.49999987	     42.21918807	     -6.84026575	      0.60268746	     29.34697430	      0.51220133	    -12.10070566	     -4.07922427	     -7.49999987	    -29.83097080	     -2.28067864	      1.23686701	     19.45208430	    -31.10590350	     -0.30589914	     89.82654558	     86.22702750	     13.95018075	    -34.82939622	    -13.41809033	    120.22303167	     86.54755065
      3.10000000	    -10.79200115	      0.16101229	      0.35774706	      0.72283371	      0.93732170	     -0.04538660	     44.67022347	     -9.19796779	     -3.10539955	     37.49519399	      0.65441459	     -0.03057652	     -4.22685102	     -7.49999987	     47.34753688	     -7.52972318	      1.41077434	     37.04322392	      0.64652622	     -4.76940828	     -4.05830591	     -7.49999987	    -30.17963086	     -1.82371114	      2.22141905	     21.65449681	    -31.53034961	     -2.16742556	     93.50632808	     92.22637734	     16.27592134	    -33.48096035	    -12.06157314	    124.39964250	     90.40165501
      3.11666670	    -12.84937597	      0.19028453	     -0.05278539	      0.73463853	      0.89481716	     -0.04529537	     53.34708465	     -8.76842665	     -0.21397630	     50.67467873	      0.88443999	      7.28615938	     -7.68830247	     -7.49999987	     55.06845222	     -7.84117419	      2.15948456	     48.27258519	      0.84251555	      2.85790685	     -5.08280958	     -7.49999987	    -30.31758531	     -1.81971801	      1.51715807	     22.75824533	    -31.20791149	     -2.34560873	     99.47312572	     89.95127300	     18.95183394	    -32.78294338	    -11.31359005	    129.82247144	     87.70409495
      3.13333330	    -14.08858406	      0.45000178	      0.08936127	      0.73425931	      0.86969781	     -0.04489013	     60.78017201	     -8.49625511	      2.00477897	     62.19563624	      1.08551863	     12.32008567	    -10.13930762	     -7.49999987	     61.95333223	     -7.60185042	      2.71412059	     58.69088280	      1.02434915	      8.73926496	     -6.02805755	     -7.49999987	    -33.10716960	     -2.02607327	      0.99261100	     28.39879244	    -31.32012054	     -1.87120679	    101.58276050	     90.60954941	     23.60449285	    -32.02245531	     -8.94019852	    132.90383575	     87.64842803
      3.15000000	    -15.53056165	      0.53379676	     -0.08209828	      0.73529935	      0.83847541	     -0.04457316	     67.27826179	     -8.22513706	      3.16429721	     70.98191611	      1.23886815	     16.16039239	    -10.99408937	     -7.49999987	     68.27397406	     -7.60214598	      3.39639106	     67.23113824	      1.17340472	     12.68362133	     -7.00851136	     -7.49999987	    -36.09084781	     -1.93227040	      0.65088922	     36.98861336	    -31.99990897	     -0.82675303	    102.40992992	     91.77743476	     30.43966526	    -31.00496435	     -6.50597364	    134.75414721	     87.96475809
      3.16666670	    -17.17142595	      0.21054160	     -0.00081273	      0.74377590	      0.81475930	     -0.03521841	     72.09536513	     -7.73894210	      3.59200903	     77.44810728	      1.35172447	     19.59437801	    -11.04086934	     -7.49999987	     73.36583682	     -7.80746190	      4.34379374	     73.50767887	      1.28295102	     15.65683619	     -7.75098642	     -7.49999987	    -37.97356934	     -1.55819974	      0.59476257	     43.52624439	    -31.73324462	      0.47520057	    102.88527074	     93.13453246	     36.40660387	    -30.09920392	     -4.45410907	    134.39526067	     87.91298825
